<svg width="23" height="51" viewBox="0 0 23 51" fill="none" xmlns="http://www.w3.org/2000/svg">
<mask id="path-1-outside-1_106_124" maskUnits="userSpaceOnUse" x="-1" y="-1" width="25" height="53" fill="black">
<rect fill="white" x="-1" y="-1" width="25" height="53"/>
<path d="M11.32 51V6.792L12.472 0.599997H22.336V51H11.32ZM0.952 17.88V7.368C2.248 7.464 3.568 7.176 4.912 6.504C6.304 5.832 7.648 4.944 8.944 3.84C10.288 2.688 11.464 1.56 12.472 0.455998L19.816 7.584C18.04 9.6 16.144 11.448 14.128 13.128C12.112 14.76 10.024 16.032 7.864 16.944C5.704 17.808 3.4 18.12 0.952 17.88Z"/>
</mask>
<path d="M11.32 51V6.792L12.472 0.599997H22.336V51H11.32ZM0.952 17.88V7.368C2.248 7.464 3.568 7.176 4.912 6.504C6.304 5.832 7.648 4.944 8.944 3.84C10.288 2.688 11.464 1.56 12.472 0.455998L19.816 7.584C18.04 9.6 16.144 11.448 14.128 13.128C12.112 14.76 10.024 16.032 7.864 16.944C5.704 17.808 3.4 18.12 0.952 17.88Z" fill="white"/>
<path d="M11.32 51H10.32V52H11.32V51ZM11.32 6.792L10.3369 6.60909L10.32 6.69977V6.792H11.32ZM12.472 0.599997V-0.400003H11.6409L11.4889 0.417089L12.472 0.599997ZM22.336 0.599997H23.336V-0.400003H22.336V0.599997ZM22.336 51V52H23.336V51H22.336ZM0.952 17.88H-0.0479999V18.7868L0.854429 18.8752L0.952 17.88ZM0.952 7.368L1.02587 6.37073L-0.0479999 6.29119V7.368H0.952ZM4.912 6.504L4.47721 5.60336L4.46479 5.60957L4.912 6.504ZM8.944 3.84L9.59247 4.60124L9.59479 4.59925L8.944 3.84ZM12.472 0.455997L13.1685 -0.261581L12.4287 -0.97963L11.7335 -0.218271L12.472 0.455997ZM19.816 7.584L20.5664 8.24503L21.1962 7.53005L20.5125 6.86642L19.816 7.584ZM14.128 13.128L14.7572 13.9052L14.7627 13.9008L14.7682 13.8962L14.128 13.128ZM7.864 16.944L8.23539 17.8725L8.24422 17.8689L8.25297 17.8652L7.864 16.944ZM12.32 51V6.792H10.32V51H12.32ZM12.3031 6.97491L13.4551 0.782904L11.4889 0.417089L10.3369 6.60909L12.3031 6.97491ZM12.472 1.6H22.336V-0.400003H12.472V1.6ZM21.336 0.599997V51H23.336V0.599997H21.336ZM22.336 50H11.32V52H22.336V50ZM1.952 17.88V7.368H-0.0479999V17.88H1.952ZM0.878129 8.36527C2.38045 8.47655 3.87955 8.13826 5.35921 7.39842L4.46479 5.60957C3.25645 6.21374 2.11555 6.45145 1.02587 6.37073L0.878129 8.36527ZM5.34675 7.40455C6.82298 6.69189 8.23797 5.75507 9.59247 4.60124L8.29553 3.07875C7.05803 4.13293 5.78502 4.97211 4.47725 5.60345L5.34675 7.40455ZM9.59479 4.59925C10.9643 3.42541 12.1706 2.26923 13.2105 1.13027L11.7335 -0.218271C10.7574 0.850767 9.61172 1.95059 8.29321 3.08074L9.59479 4.59925ZM11.7755 1.17358L19.1195 8.30158L20.5125 6.86642L13.1685 -0.261581L11.7755 1.17358ZM19.0656 6.92297C17.3228 8.90138 15.4635 10.7134 13.4878 12.3598L14.7682 13.8962C16.8245 12.1826 18.7572 10.2986 20.5664 8.24503L19.0656 6.92297ZM13.4988 12.3508C11.5481 13.9299 9.53997 15.1509 7.47503 16.0228L8.25297 17.8652C10.508 16.9131 12.6759 15.5901 14.7572 13.9052L13.4988 12.3508ZM7.49261 16.0155C5.48986 16.8166 3.34757 17.1101 1.04957 16.8848L0.854429 18.8752C3.45243 19.1299 5.91814 18.7994 8.23539 17.8725L7.49261 16.0155Z" fill="#318335" mask="url(#path-1-outside-1_106_124)"/>
</svg>
